HIERARCHY
ROOT newVegas:Hips
{
	OFFSET 0.000000 96.479958 0.000000
	CHANNELS 6 Xposition Yposition Zposition Xrotation Yrotation Zrotation
	JOINT newVegas:Pelvis
	{
		OFFSET 0.000000 0.000000 0.000000
		CHANNELS 3 Xrotation Yrotation Zrotation
		JOINT newVegas:LeftUpLeg
		{
			OFFSET 18.735201 -5.666702 -4.541200
			CHANNELS 3 Xrotation Yrotation Zrotation
			JOINT newVegas:LeftLeg
			{
				OFFSET -0.021200 -31.938179 0.493100
				CHANNELS 3 Xrotation Yrotation Zrotation
				JOINT newVegas:LeftFoot
				{
					OFFSET 0.021200 -31.938179 -4.336299
					CHANNELS 3 Xrotation Yrotation Zrotation
					JOINT newVegas:LeftToeBase
					{
						OFFSET 0.943001 -26.722000 15.023500
						CHANNELS 3 Xrotation Yrotation Zrotation
						End Site
						{
							OFFSET 0.000000 30.670183 0.000000
						}
					}
				}
				JOINT newVegas:Left_PantLeg
				{
					OFFSET 0.663870 -9.044666 -1.108900
					CHANNELS 3 Xrotation Yrotation Zrotation
					End Site
					{
						OFFSET 1.415995 20.635357 0.000000
					}
				}
			}
		}
		JOINT newVegas:RightUpLeg
		{
			OFFSET -18.735201 -5.666702 -4.541200
			CHANNELS 3 Xrotation Yrotation Zrotation
			JOINT newVegas:RightLeg
			{
				OFFSET 0.018946 -31.938133 0.493100
				CHANNELS 3 Xrotation Yrotation Zrotation
				JOINT newVegas:RightFoot
				{
					OFFSET -0.018946 -31.938126 -4.336299
					CHANNELS 3 Xrotation Yrotation Zrotation
					JOINT newVegas:RightToeBase
					{
						OFFSET -0.943001 -26.722004 15.023500
						CHANNELS 3 Xrotation Yrotation Zrotation
						End Site
						{
							OFFSET 0.000000 30.670187 0.000000
						}
					}
				}
				JOINT newVegas:Right_PantLeg
				{
					OFFSET -0.661674 -9.044716 -1.108900
					CHANNELS 3 Xrotation Yrotation Zrotation
					End Site
					{
						OFFSET -1.415958 20.635269 0.000000
					}
				}
			}
		}
	}
	JOINT newVegas:Spine
	{
		OFFSET 0.000000 10.199997 -0.299500
		CHANNELS 3 Xrotation Yrotation Zrotation
		JOINT newVegas:Spine1
		{
			OFFSET 0.000000 11.900002 -1.516600
			CHANNELS 3 Xrotation Yrotation Zrotation
			JOINT newVegas:Spine2
			{
				OFFSET 0.000000 13.600006 -2.842500
				CHANNELS 3 Xrotation Yrotation Zrotation
				JOINT newVegas:Neck
				{
					OFFSET 0.000000 9.624100 -2.890100
					CHANNELS 3 Xrotation Yrotation Zrotation
					JOINT newVegas:Head
					{
						OFFSET 0.000000 14.068802 -1.351900
						CHANNELS 3 Xrotation Yrotation Zrotation
						JOINT newVegas:Hair_Back
						{
							OFFSET 0.000000 3.231903 -17.524799
							CHANNELS 3 Xrotation Yrotation Zrotation
							End Site
							{
								OFFSET 0.000000 19.849884 0.000000
							}
						}
						JOINT newVegas:Hair_Front
						{
							OFFSET 0.000000 31.260406 4.573800
							CHANNELS 3 Xrotation Yrotation Zrotation
							JOINT newVegas:Hair_Front1
							{
								OFFSET 0.000000 2.284103 11.993300
								CHANNELS 3 Xrotation Yrotation Zrotation
								JOINT newVegas:Hair_Front2
								{
									OFFSET 0.000000 2.284103 11.993300
									CHANNELS 3 Xrotation Yrotation Zrotation
									End Site
									{
										OFFSET 0.000000 12.208862 0.000000
									}
								}
							}
						}
						JOINT newVegas:Jowel
						{
							OFFSET 0.000000 -7.458206 6.864100
							CHANNELS 3 Xrotation Yrotation Zrotation
							End Site
							{
								OFFSET 0.000000 19.849884 0.000000
							}
						}
					}
				}
				JOINT newVegas:LeftShoulder
				{
					OFFSET 15.263000 10.923401 -0.547700
					CHANNELS 3 Xrotation Yrotation Zrotation
					JOINT newVegas:LeftArm
					{
						OFFSET 25.438599 -2.830597 -13.032500
						CHANNELS 3 Xrotation Yrotation Zrotation
						JOINT newVegas:LeftForeArm
						{
							OFFSET 29.960503 0.000000 0.000000
							CHANNELS 3 Xrotation Yrotation Zrotation
							JOINT newVegas:LeftHand
							{
								OFFSET 27.849251 0.000000 0.000000
								CHANNELS 3 Xrotation Yrotation Zrotation
								JOINT newVegas:LeftHandThumb1
								{
									OFFSET 4.487587 -3.305161 6.305391
									CHANNELS 3 Xrotation Yrotation Zrotation
									JOINT newVegas:LeftHandThumb2
									{
										OFFSET 5.480453 -3.164139 3.164143
										CHANNELS 3 Xrotation Yrotation Zrotation
										JOINT newVegas:LeftHandThumb3
										{
											OFFSET 5.159721 -2.978973 2.978967
											CHANNELS 3 Xrotation Yrotation Zrotation
											End Site
											{
												OFFSET 2.494507 5.926697 1.738678
											}
										}
									}
								}
								JOINT newVegas:LeftHandIndex1
								{
									OFFSET 18.578728 -0.527832 5.208049
									CHANNELS 3 Xrotation Yrotation Zrotation
									JOINT newVegas:LeftHandIndex2
									{
										OFFSET 3.192009 0.000000 0.000000
										CHANNELS 3 Xrotation Yrotation Zrotation
										JOINT newVegas:LeftHandIndex3
										{
											OFFSET 3.835129 0.000000 0.000000
											CHANNELS 3 Xrotation Yrotation Zrotation
											End Site
											{
												OFFSET -0.034599 3.816971 0.371180
											}
										}
									}
								}
								JOINT newVegas:LeftHandMiddle1
								{
									OFFSET 18.476105 0.000000 0.000000
									CHANNELS 3 Xrotation Yrotation Zrotation
									JOINT newVegas:LeftHandMiddle2
									{
										OFFSET 3.324875 0.000000 0.000000
										CHANNELS 3 Xrotation Yrotation Zrotation
										JOINT newVegas:LeftHandMiddle3
										{
											OFFSET 4.596550 0.000000 0.000000
											CHANNELS 3 Xrotation Yrotation Zrotation
											End Site
											{
												OFFSET 0.057701 4.578827 0.399218
											}
										}
									}
								}
								JOINT newVegas:LeftHandRing1
								{
									OFFSET 17.732719 0.121887 -4.201567
									CHANNELS 3 Xrotation Yrotation Zrotation
									JOINT newVegas:LeftHandRing2
									{
										OFFSET 2.733170 0.000000 0.000000
										CHANNELS 3 Xrotation Yrotation Zrotation
										JOINT newVegas:LeftHandRing3
										{
											OFFSET 3.178268 0.000000 0.000000
											CHANNELS 3 Xrotation Yrotation Zrotation
											End Site
											{
												OFFSET 0.119102 3.170624 0.185394
											}
										}
									}
								}
								JOINT newVegas:LeftHandPinky1
								{
									OFFSET 15.989624 -0.606689 -7.535461
									CHANNELS 3 Xrotation Yrotation Zrotation
									JOINT newVegas:LeftHandPinky2
									{
										OFFSET 2.538986 0.000000 0.000000
										CHANNELS 3 Xrotation Yrotation Zrotation
										JOINT newVegas:LeftHandPinky3
										{
											OFFSET 2.593102 0.000000 0.000000
											CHANNELS 3 Xrotation Yrotation Zrotation
											End Site
											{
												OFFSET -0.150902 2.584198 0.152708
											}
										}
									}
								}
							}
							JOINT newVegas:Left_Sleeve
							{
								OFFSET 0.267448 -0.649796 0.577675
								CHANNELS 3 Xrotation Yrotation Zrotation
								End Site
								{
									OFFSET 0.000000 15.991241 0.000000
								}
							}
							JOINT newVegas:Left_CapeC
							{
								OFFSET 15.715958 -8.608795 -6.935905
								CHANNELS 3 Xrotation Yrotation Zrotation
								JOINT newVegas:Left_CapeC1
								{
									OFFSET 0.000000 -8.688499 0.000000
									CHANNELS 3 Xrotation Yrotation Zrotation
									End Site
									{
										OFFSET 0.000000 8.688499 0.000000
									}
								}
							}
						}
						JOINT newVegas:Left_CapeB
						{
							OFFSET 26.118385 -8.608795 -7.079235
							CHANNELS 3 Xrotation Yrotation Zrotation
							JOINT newVegas:Left_CapeB1
							{
								OFFSET 0.000000 -8.688499 0.000000
								CHANNELS 3 Xrotation Yrotation Zrotation
								End Site
								{
									OFFSET 0.000000 8.688499 0.000000
								}
							}
						}
						JOINT newVegas:Left_CapeA
						{
							OFFSET 5.115639 -8.608795 -10.395809
							CHANNELS 3 Xrotation Yrotation Zrotation
							JOINT newVegas:Left_CapeA1
							{
								OFFSET 0.000000 -8.688499 0.000000
								CHANNELS 3 Xrotation Yrotation Zrotation
								End Site
								{
									OFFSET 0.000000 8.688499 0.000000
								}
							}
						}
					}
				}
				JOINT newVegas:RightShoulder
				{
					OFFSET -15.263000 10.923401 -0.547700
					CHANNELS 3 Xrotation Yrotation Zrotation
					JOINT newVegas:RightArm
					{
						OFFSET -25.438599 -2.830597 -13.032500
						CHANNELS 3 Xrotation Yrotation Zrotation
						JOINT newVegas:RightForeArm
						{
							OFFSET -29.960503 0.000000 0.000000
							CHANNELS 3 Xrotation Yrotation Zrotation
							JOINT newVegas:RightHand
							{
								OFFSET -27.849251 0.000000 0.000000
								CHANNELS 3 Xrotation Yrotation Zrotation
								JOINT newVegas:RightHandThumb1
								{
									OFFSET -4.487587 -3.305161 6.305391
									CHANNELS 3 Xrotation Yrotation Zrotation
									JOINT newVegas:RightHandThumb2
									{
										OFFSET -5.480453 -3.164139 3.164143
										CHANNELS 3 Xrotation Yrotation Zrotation
										JOINT newVegas:RightHandThumb3
										{
											OFFSET -5.159721 -2.978973 2.978967
											CHANNELS 3 Xrotation Yrotation Zrotation
											End Site
											{
												OFFSET -2.494507 5.926697 1.738678
											}
										}
									}
								}
								JOINT newVegas:RightHandIndex1
								{
									OFFSET -18.578728 -0.527832 5.208049
									CHANNELS 3 Xrotation Yrotation Zrotation
									JOINT newVegas:RightHandIndex2
									{
										OFFSET -3.192009 0.000000 0.000000
										CHANNELS 3 Xrotation Yrotation Zrotation
										JOINT newVegas:RightHandIndex3
										{
											OFFSET -3.835129 0.000000 0.000000
											CHANNELS 3 Xrotation Yrotation Zrotation
											End Site
											{
												OFFSET 0.034599 3.816971 0.371180
											}
										}
									}
								}
								JOINT newVegas:RightHandMiddle1
								{
									OFFSET -18.476105 0.000000 0.000000
									CHANNELS 3 Xrotation Yrotation Zrotation
									JOINT newVegas:RightHandMiddle2
									{
										OFFSET -3.324875 0.000000 0.000000
										CHANNELS 3 Xrotation Yrotation Zrotation
										JOINT newVegas:RightHandMiddle3
										{
											OFFSET -4.596550 0.000000 0.000000
											CHANNELS 3 Xrotation Yrotation Zrotation
											End Site
											{
												OFFSET -0.057701 4.578827 0.399218
											}
										}
									}
								}
								JOINT newVegas:RightHandRing1
								{
									OFFSET -17.732719 0.121887 -4.201567
									CHANNELS 3 Xrotation Yrotation Zrotation
									JOINT newVegas:RightHandRing2
									{
										OFFSET -2.733170 0.000000 0.000000
										CHANNELS 3 Xrotation Yrotation Zrotation
										JOINT newVegas:RightHandRing3
										{
											OFFSET -3.178268 0.000000 0.000000
											CHANNELS 3 Xrotation Yrotation Zrotation
											End Site
											{
												OFFSET -0.119102 3.170624 0.185394
											}
										}
									}
								}
								JOINT newVegas:RightHandPinky1
								{
									OFFSET -15.989624 -0.606689 -7.535461
									CHANNELS 3 Xrotation Yrotation Zrotation
									JOINT newVegas:RightHandPinky2
									{
										OFFSET -2.538986 0.000000 0.000000
										CHANNELS 3 Xrotation Yrotation Zrotation
										JOINT newVegas:RightHandPinky3
										{
											OFFSET -2.593102 0.000000 0.000000
											CHANNELS 3 Xrotation Yrotation Zrotation
											End Site
											{
												OFFSET 0.150902 2.584198 0.152708
											}
										}
									}
								}
							}
							JOINT newVegas:Right_CapeC
							{
								OFFSET -15.715958 -8.608795 -6.935905
								CHANNELS 3 Xrotation Yrotation Zrotation
								JOINT newVegas:Right_CapeC1
								{
									OFFSET 0.000000 -8.688499 0.000000
									CHANNELS 3 Xrotation Yrotation Zrotation
									End Site
									{
										OFFSET 0.000000 8.688499 0.000000
									}
								}
							}
							JOINT newVegas:Right_Sleeve
							{
								OFFSET -0.267448 -0.649994 0.577675
								CHANNELS 3 Xrotation Yrotation Zrotation
								End Site
								{
									OFFSET 0.000000 15.991302 0.000000
								}
							}
						}
						JOINT newVegas:Right_CapeA
						{
							OFFSET -5.115540 -8.608795 -10.395824
							CHANNELS 3 Xrotation Yrotation Zrotation
							JOINT newVegas:Right_CapeA1
							{
								OFFSET 0.000000 -8.688499 0.000000
								CHANNELS 3 Xrotation Yrotation Zrotation
								End Site
								{
									OFFSET 0.000000 8.688499 0.000000
								}
							}
						}
						JOINT newVegas:Right_CapeB
						{
							OFFSET -26.118187 -8.608795 -7.079266
							CHANNELS 3 Xrotation Yrotation Zrotation
							JOINT newVegas:Right_CapeB1
							{
								OFFSET 0.000000 -8.688499 0.000000
								CHANNELS 3 Xrotation Yrotation Zrotation
								End Site
								{
									OFFSET 0.000000 8.688499 0.000000
								}
							}
						}
					}
				}
				JOINT newVegas:Left_Collar
				{
					OFFSET 18.625099 8.655502 8.828100
					CHANNELS 3 Xrotation Yrotation Zrotation
					JOINT newVegas:Left_Collar1
					{
						OFFSET 14.783401 10.540405 -1.259500
						CHANNELS 3 Xrotation Yrotation Zrotation
						End Site
						{
							OFFSET 0.000000 18.199875 0.000000
						}
					}
				}
				JOINT newVegas:Collar_Back
				{
					OFFSET 0.000000 15.630707 -20.132601
					CHANNELS 3 Xrotation Yrotation Zrotation
					End Site
					{
						OFFSET 0.000000 22.523010 0.000000
					}
				}
				JOINT newVegas:Left_Peck
				{
					OFFSET 17.239599 -5.132599 25.482599
					CHANNELS 3 Xrotation Yrotation Zrotation
					End Site
					{
						OFFSET 0.000000 22.523010 0.000000
					}
				}
				JOINT newVegas:Right_Peck
				{
					OFFSET -17.239599 -5.132202 25.482599
					CHANNELS 3 Xrotation Yrotation Zrotation
					End Site
					{
						OFFSET 0.000000 22.523010 0.000000
					}
				}
				JOINT newVegas:Right_Collar
				{
					OFFSET -18.625099 8.655792 8.828100
					CHANNELS 3 Xrotation Yrotation Zrotation
					JOINT newVegas:Right_Collar1
					{
						OFFSET -14.783401 10.539993 -1.259500
						CHANNELS 3 Xrotation Yrotation Zrotation
						End Site
						{
							OFFSET 0.000000 18.199631 0.000000
						}
					}
				}
			}
		}
		JOINT newVegas:Belly
		{
			OFFSET 0.000000 -6.540398 9.014299
			CHANNELS 3 Xrotation Yrotation Zrotation
			End Site
			{
				OFFSET 0.000000 11.566666 0.000000
			}
		}
	}
	JOINT newVegas:ElvisFacialAnim_Joint
	{
		OFFSET 1.000000 -95.330101 -8.825800
		CHANNELS 3 Xrotation Yrotation Zrotation
		End Site
		{
			OFFSET 0.000000 35.315800 0.000000
		}
	}
}
MOTION
Frames: 4
Frame Time: 0.016667
2.319879 82.682434 -2.557127 163.529386 -84.775400 172.721414 0.000000 0.000000 -0.000000 -5.671053 18.074129 15.043265 42.447184 8.397156 -6.822812 -22.329435 16.561797 -22.493160 -0.000000 -0.000001 -0.000000 0.000003 0.000002 0.000002 -55.923174 16.883700 -14.071364 54.313760 -2.799990 -8.717772 -4.532233 18.744587 16.989788 -0.000000 0.000001 0.000000 -0.000000 0.000000 -0.000002 27.042727 -10.166663 9.322218 22.828261 -3.476721 1.160355 22.831244 -3.513607 1.117196 2.185702 -0.605849 -1.351445 2.185732 -0.605850 -1.351449 0.000001 0.000000 -0.000001 2.185738 -0.605831 -1.351466 2.185651 -0.605870 -1.351439 0.000001 -0.000000 -0.000000 0.000001 0.000000 -0.000001 -0.574375 -9.850084 11.644921 7.953486 23.817331 -68.381498 0.000054 -83.763008 0.000039 -0.593548 -15.951304 -35.333316 -6.141210 -11.690801 -6.761685 9.914087 42.595515 3.409873 0.000001 0.000003 -0.000003 0.255313 3.378221 -45.814348 5.654093 5.847756 -88.067462 0.000004 -0.000001 -0.000001 -0.461471 3.841587 -39.722679 6.450743 5.820336 -95.892857 0.000002 -0.000002 -0.000005 0.469722 4.966820 -39.799437 8.181040 5.368605 -113.502977 0.000002 -0.000002 -0.000000 -3.762429 9.063714 -45.253814 5.342516 5.828979 -85.005304 0.000001 0.000002 -0.000000 0.000001 -0.000001 -0.000000 0.000001 -0.000001 -0.000000 0.000000 -0.000001 0.000000 -0.000001 -0.000001 0.000001 -0.000002 -0.000001 -0.000001 -0.000001 -0.000001 0.000001 -0.000001 -0.000001 0.000000 6.747086 21.058546 15.296854 -49.806832 49.425872 42.155904 0.000208 110.780976 -0.000207 -30.368667 3.752463 19.633083 -7.341093 13.749657 7.412328 9.855733 -44.489100 -3.903282 0.000000 -0.000000 -0.000000 -0.124371 -2.384790 45.108851 4.500588 -4.654549 88.071157 -0.000001 0.000001 -0.000001 -0.761629 -2.932903 39.031061 5.133878 -4.632743 95.881670 -0.000004 -0.000000 0.000000 0.154761 -4.068805 39.122671 6.509732 -4.273581 113.462898 -0.000001 0.000001 0.000001 -4.198879 -8.025541 44.637776 4.252900 -4.639602 85.014818 0.000002 0.000002 -0.000002 -0.000000 0.000001 -0.000003 -0.000001 0.000000 -0.000002 -0.000000 0.000000 -0.000003 -0.000002 0.000000 -0.000001 -0.000002 0.000000 -0.000001 -0.000002 0.000000 -0.000001 -0.000002 -0.000000 -0.000001 -0.000000 -0.000000 -0.000001 -0.000000 -0.000000 -0.000001 -0.000000 -0.000000 -0.000001 -0.000000 -0.000000 -0.000001 -0.000000 -0.000000 -0.000001 -0.000000 -0.000000 -0.000001 -0.000000 -0.000000 -0.000001 -0.000000 0.000000 -0.000000 0.000000 0.000000 -0.000000 
2.270480 82.798042 -2.601459 167.404330 -87.275297 176.675315 -0.000000 -0.000000 -0.000001 -6.587033 17.649361 15.834660 42.986144 8.361376 -6.335393 -21.862554 14.374029 -22.718654 -0.000000 -0.000001 -0.000000 -0.000002 0.000003 -0.000001 -54.156368 16.811228 -15.387513 55.789538 -2.773583 -8.691621 -6.114769 16.792833 17.430866 0.000000 0.000001 -0.000000 -0.000000 0.000000 -0.000001 26.642406 -10.118824 9.223479 22.569691 -3.466838 1.087102 22.571357 -3.500727 1.047260 2.187137 -0.513068 -1.407961 2.187132 -0.513076 -1.407936 -0.000000 -0.000000 -0.000001 2.187138 -0.513036 -1.407969 2.187173 -0.513153 -1.407934 0.000000 0.000000 -0.000001 -0.000000 -0.000000 0.000001 -0.552099 -9.621080 10.944545 4.435618 26.897712 -66.445446 -0.001238 -87.948890 -0.001216 -0.585598 -15.037158 -35.679532 -6.141210 -11.690805 -6.761684 9.914090 42.595512 3.409869 0.000001 -0.000001 -0.000003 0.255315 3.378222 -45.814348 5.654092 5.847754 -88.067455 -0.000001 -0.000001 -0.000001 -0.461469 3.841587 -39.722679 6.450742 5.820336 -95.892857 -0.000003 0.000000 0.000001 0.469723 4.966818 -39.799444 8.181039 5.368600 -113.502977 -0.000001 -0.000002 0.000000 -3.762429 9.063716 -45.253814 5.342509 5.828977 -85.005311 -0.000001 -0.000000 0.000005 0.000000 0.000002 -0.000001 0.000000 0.000002 -0.000001 -0.000000 0.000002 -0.000001 0.000002 -0.000001 0.000003 0.000002 -0.000002 0.000003 0.000002 -0.000001 0.000003 0.000002 -0.000002 0.000002 6.677396 21.397933 15.512686 -47.870743 45.703975 40.482934 0.000083 111.430397 -0.000082 -31.320126 4.487722 19.907235 -7.341095 13.749657 7.412324 9.855731 -44.489100 -3.903283 -0.000000 0.000002 0.000003 -0.124369 -2.384796 45.108857 4.500591 -4.654546 88.071157 -0.000004 0.000001 -0.000000 -0.761629 -2.932908 39.031061 5.133877 -4.632741 95.881670 -0.000002 0.000000 -0.000000 0.154757 -4.068806 39.122675 6.509730 -4.273575 113.462898 0.000001 0.000001 -0.000002 -4.198879 -8.025541 44.637776 4.252900 -4.639608 85.014818 -0.000001 0.000003 -0.000001 0.000000 -0.000000 -0.000000 0.000000 0.000001 -0.000000 0.000000 -0.000001 -0.000000 -0.000001 0.000001 -0.000000 -0.000001 0.000001 -0.000000 -0.000001 0.000001 -0.000000 -0.000001 0.000001 -0.000000 -0.000002 -0.000000 0.000001 -0.000002 -0.000000 0.000001 -0.000002 -0.000000 0.000001 -0.000002 -0.000000 0.000001 -0.000002 -0.000000 0.000001 -0.000002 -0.000000 0.000001 -0.000002 -0.000000 0.000001 -0.000001 0.000000 -0.000000 -0.000000 -0.000000 -0.000001 
2.225539 82.947639 -2.626867 72.598723 -90.323808 81.941527 0.000000 0.000000 0.000000 -7.632507 17.147123 16.644100 43.475875 8.330222 -5.851594 -21.337921 12.005000 -22.872494 -0.000000 -0.000000 0.000000 0.000002 -0.000002 0.000002 -52.126979 16.586011 -16.844095 57.112918 -2.754919 -8.603300 -7.694578 14.733246 17.850479 0.000000 0.000001 -0.000000 0.000001 0.000000 -0.000001 26.140942 -10.114560 9.132267 22.258179 -3.473024 1.011017 22.258244 -3.504563 0.974838 2.175088 -0.406647 -1.438029 2.175089 -0.406643 -1.438028 -0.000001 0.000001 -0.000002 2.175081 -0.406641 -1.438023 2.175134 -0.406638 -1.438038 -0.000000 -0.000000 0.000000 -0.000001 0.000001 -0.000000 -0.520526 -9.531910 10.234635 1.463530 28.835481 -64.955072 0.000513 -92.579703 0.000510 -0.628405 -14.115737 -35.772392 -6.141208 -11.690800 -6.761689 9.914089 42.595512 3.409869 -0.000000 0.000001 -0.000003 0.255316 3.378220 -45.814344 5.654093 5.847753 -88.067455 -0.000002 -0.000003 -0.000003 -0.461472 3.841585 -39.722679 6.450741 5.820336 -95.892851 0.000003 -0.000000 0.000002 0.469723 4.966819 -39.799444 8.181040 5.368603 -113.502970 0.000001 0.000001 0.000002 -3.762427 9.063712 -45.253818 5.342512 5.828975 -85.005304 0.000001 -0.000002 -0.000002 -0.000004 0.000002 -0.000001 -0.000004 0.000002 -0.000001 -0.000004 0.000002 -0.000001 -0.000002 -0.000004 0.000005 -0.000002 -0.000004 0.000003 -0.000002 -0.000004 0.000005 -0.000004 -0.000005 0.000004 6.665667 21.639416 15.541472 -46.863779 42.548359 39.774456 0.000114 111.812703 -0.000126 -31.896300 5.342550 20.119377 -7.341092 13.749658 7.412327 9.855732 -44.489096 -3.903282 0.000001 -0.000002 -0.000001 -0.124369 -2.384790 45.108857 4.500588 -4.654544 88.071157 0.000005 -0.000001 -0.000001 -0.761626 -2.932903 39.031065 5.133878 -4.632749 95.881670 -0.000002 0.000001 -0.000001 0.154755 -4.068797 39.122671 6.509732 -4.273576 113.462898 -0.000001 0.000002 0.000000 -4.198879 -8.025539 44.637776 4.252900 -4.639603 85.014818 -0.000001 0.000003 0.000001 0.000001 0.000002 -0.000000 0.000000 0.000000 -0.000001 0.000000 0.000002 -0.000000 -0.000001 0.000000 0.000000 -0.000001 0.000000 0.000000 -0.000001 0.000000 0.000000 -0.000001 -0.000000 0.000000 -0.000002 -0.000001 -0.000000 -0.000002 -0.000001 -0.000000 -0.000002 -0.000001 -0.000000 -0.000002 -0.000001 -0.000000 -0.000002 -0.000001 -0.000000 -0.000002 -0.000001 -0.000000 -0.000002 -0.000001 -0.000000 -0.000001 0.000000 0.000000 0.000000 0.000000 0.000000 
2.180556 83.112511 -2.635561 154.885891 -92.841607 164.325308 0.000000 -0.000000 0.000000 -8.727381 16.625801 17.438084 43.882449 8.308651 -5.447742 -20.774451 9.478850 -22.933373 0.000000 0.000000 -0.000000 0.000001 0.000003 -0.000002 -49.940953 16.230620 -18.414846 58.299223 -2.738873 -8.418479 -9.242553 12.675194 18.218269 0.000000 0.000000 0.000000 0.000000 -0.000000 0.000000 25.548724 -10.171035 8.997083 21.901878 -3.506254 0.903641 21.899851 -3.536335 0.871497 2.148292 -0.280535 -1.455439 2.148280 -0.280518 -1.455439 0.000000 -0.000000 0.000000 2.148337 -0.280499 -1.455448 2.148363 -0.280548 -1.455421 0.000000 0.000000 0.000000 0.000000 -0.000000 -0.000000 -0.487528 -9.491397 9.564235 -0.653358 29.569777 -64.021084 0.000331 -97.278723 0.000290 -0.727228 -13.207218 -35.636765 -6.141207 -11.690801 -6.761687 9.914086 42.595515 3.409866 0.000002 -0.000001 -0.000001 0.255316 3.378223 -45.814348 5.654090 5.847758 -88.067455 -0.000002 0.000001 -0.000000 -0.461472 3.841591 -39.722679 6.450741 5.820338 -95.892857 -0.000001 0.000001 0.000001 0.469727 4.966816 -39.799444 8.181040 5.368608 -113.502970 -0.000000 -0.000001 0.000002 -3.762423 9.063716 -45.253818 5.342510 5.828979 -85.005304 0.000001 -0.000002 -0.000000 -0.000003 0.000000 0.000002 -0.000003 0.000000 0.000002 -0.000004 0.000000 0.000002 0.000002 0.000000 -0.000001 0.000002 0.000000 -0.000001 0.000002 0.000000 -0.000001 0.000001 -0.000001 -0.000001 6.712775 21.856317 15.378777 -46.521539 39.994125 39.770061 0.000040 111.959081 -0.000041 -32.012420 6.164907 20.344926 -7.341094 13.749659 7.412329 9.855731 -44.489096 -3.903278 0.000001 -0.000001 -0.000000 -0.124372 -2.384788 45.108854 4.500587 -4.654541 88.071157 0.000003 -0.000000 -0.000001 -0.761628 -2.932897 39.031061 5.133879 -4.632741 95.881670 -0.000002 -0.000001 0.000000 0.154759 -4.068802 39.122675 6.509731 -4.273581 113.462898 0.000001 0.000001 -0.000002 -4.198878 -8.025534 44.637776 4.252900 -4.639603 85.014818 -0.000000 0.000002 0.000001 0.000000 -0.000003 0.000002 -0.000000 -0.000001 0.000000 0.000000 -0.000003 0.000001 0.000002 0.000001 -0.000000 0.000002 0.000001 -0.000000 0.000002 0.000001 -0.000000 0.000002 0.000001 -0.000000 -0.000001 0.000000 0.000001 -0.000001 0.000000 0.000001 -0.000001 0.000000 0.000001 -0.000001 0.000000 0.000001 -0.000001 0.000000 0.000001 -0.000001 0.000000 0.000001 -0.000001 0.000000 0.000001 0.000002 0.000000 -0.000000 0.000000 -0.000000 0.000000 
